{"title":"There Will Be Blood 2007 BRRip 720p x264 AAC - PRiSTiNE [P2PDL]","uid":8401344,"size":983296549,"categoryP":"video","categoryS":"hd___movies","magnet":"?xt=urn:btih:3cbf7a25424fd2d2f43533a4695da2b2368f5e32&amp;dn=There+Will+Be+Blood+2007+BRRip+720p+x264+AAC+-+PRiSTiNE+%5BP2PDL%5D&amp;tr=udp%3A%2F%2Ftracker.openbittorrent.com%3A80&amp;tr=udp%3A%2F%2Fopen.demonii.com%3A1337&amp;tr=udp%3A%2F%2Ftracker.coppersurfer.tk%3A6969&amp;tr=udp%3A%2F%2Fexodus.desync.com%3A6969","seeders":7,"leechers":2,"uploader":"Vitamin_X","files":-1,"time":1366707918,"description":"_________________________  Visit us at _________________________\n  &lt;a href=&quot;\nhttp://p2pdl.com&quot; rel=&quot;nofollow&quot; target=&quot;_NEW&quot;&gt;\nhttp://p2pdl.com&lt;/a&gt;  ____________________________ &lt;a href=&quot; http://p2pdl.com&quot; rel=&quot;nofollow&quot; target=&quot;_NEW&quot;&gt; http://p2pdl.com&lt;/a&gt;\n\n\nThere Will Be Blood 2007 BRRip 720p x264 AAC - PRiSTiNE [P2PDL]\n\nGenre: Drama\nPlot: A story about family, greed, religion, and oil, \ncentered around a turn-of-the-century prospector in \nthe early days of the business.\nDirector: Paul Thomas Anderson\nStars: Daniel Day-Lewis, Martin Stringer, Paul Dano\nRated: Rated R for some violence\n\nInfo: &lt;a href=&quot;\nhttp://www.imdb.com/title/tt0469494/&quot; rel=&quot;nofollow&quot; target=&quot;_NEW&quot;&gt;\nhttp://www.imdb.com/title/tt0469494/&lt;/a&gt;\n\n\nGeneral\nComplete name                  : There Will Be Blood 2007 BRRip 720p x264 AAC - PRiSTiNE.mp4\nFormat                         : MPEG-4\nFile size                      : 931 MiB\nDuration                       : 2h 38mn\nOverall bit rate mode          : Variable\nOverall bit rate               : 822 Kbps\n\nVideo\nFormat                         : AVC\nFormat/Info                    : Advanced Video Codec\nFormat profile                 : High &lt;a class=&quot;__cf_email__&quot; href=&quot;/cdn-cgi/l/email-protection&quot; data-cfemail=&quot;2514156569110b14&quot;&gt;[email&amp;#160;protected]&lt;/a&gt;&lt;script cf-hash='f9e31' type=&quot;text/javascript&quot;&gt;\n/* &lt;![CDATA[ */!function(){try{var t=&quot;currentScript&quot;in document?document.currentScript:function(){for(var t=document.getElementsByTagName(&quot;script&quot;),e=t.length;e--;)if(t[e].getAttribute(&quot;cf-hash&quot;))return t[e]}();if(t&amp;&amp;t.previousSibling){var e,r,n,i,c=t.previousSibling,a=c.getAttribute(&quot;data-cfemail&quot;);if(a){for(e=&quot;&quot;,r=parseInt(a.substr(0,2),16),n=2;a.length-n;n+=2)i=parseInt(a.substr(n,2),16)^r,e+=String.fromCharCode(i);e=document.createTextNode(e),c.parentNode.replaceChild(e,c)}}}catch(u){}}();/* ]]&gt; */&lt;/script&gt;\nBit rate                       : 738 Kbps\nWidth                          : 1 280 pixels\nHeight                         : 536 pixels\nDisplay aspect ratio           : 2.40:1\nFrame rate mode                : Constant\nFrame rate                     : 23.976 fps\nBit depth                      : 10 bits\nStream size                    : 836 MiB (90%)\nWriting library                : x264 core 130 r2273 b3065e6\n\nAudio\nFormat                         : AAC\nBit rate mode                  : Variable\nBit rate                       : 80.0 Kbps\nChannel(s)                     : 2 channels\nChannel positions              : Front: L R\nSampling rate                  : 48.0 KHz\nStream size                    : 90.7 MiB (10%)\nLanguage                       : English\n\nSubtitle                       : Yes (English)\nSource                         : 720p.BluRay.DTS.x264-ESiR (Thanks)\n\nScreenshots:\n &lt;a href=&quot;\nhttp://www.ultraimg.com/images/V684.jpg&quot; rel=&quot;nofollow&quot; target=&quot;_NEW&quot;&gt;\nhttp://www.ultraimg.com/images/V684.jpg&lt;/a&gt; &lt;a href=&quot;\nhttp://www.ultraimg.com/images/1qxLW.jpg&quot; rel=&quot;nofollow&quot; target=&quot;_NEW&quot;&gt;\nhttp://www.ultraimg.com/images/1qxLW.jpg&lt;/a&gt; &lt;a href=&quot;\nhttp://www.ultraimg.com/images/iDAVF.jpg&quot; rel=&quot;nofollow&quot; target=&quot;_NEW&quot;&gt;\nhttp://www.ultraimg.com/images/iDAVF.jpg&lt;/a&gt; &lt;a href=&quot;\nhttp://www.ultraimg.com/images/c9L6e.jpg&quot; rel=&quot;nofollow&quot; target=&quot;_NEW&quot;&gt;\nhttp://www.ultraimg.com/images/c9L6e.jpg&lt;/a&gt; &lt;a href=&quot;\nhttp://www.ultraimg.com/images/5Ol1i.jpg&quot; rel=&quot;nofollow&quot; target=&quot;_NEW&quot;&gt;\nhttp://www.ultraimg.com/images/5Ol1i.jpg&lt;/a&gt; &lt;a href=&quot;\nhttp://www.ultraimg.com/images/IB9o.jpg&quot; rel=&quot;nofollow&quot; target=&quot;_NEW&quot;&gt;\nhttp://www.ultraimg.com/images/IB9o.jpg&lt;/a&gt; &lt;a href=&quot;\nhttp://www.ultraimg.com/images/QMazi.jpg&quot; rel=&quot;nofollow&quot; target=&quot;_NEW&quot;&gt;\nhttp://www.ultraimg.com/images/QMazi.jpg&lt;/a&gt;\n\n\n----------------------------------------------------------------------------------------------------\n\n\nEncoded using revolutionary 10bit encoding, which enables us to provide you more crispier \nand sharper images at small sizes, just make sure you follow our instructions without a fault.\nRecommend to you to use latest version of VLC player. Install K-Lite Codec Pack or shark007 codecs\nin case of any kind of problem in playback (For non-VLC Media Player users). Alternatively, install\nCore AVC codecs, the fastest decoder that there is coupled with Community Center Codec Pack and play\non Windows Media Player Classic. Check sample to be sure.\nEnjoy!\n\nEncoder Notes:Looking For Early Access To Anything You Can Provide DVDScr, R5, DVDR, BluRay, Direct\nAudio, Music Releases and Seedboxes. We require dedicated servers, so as to do more \nand fast releases of movies.\nIf You Got anything to offer please contact us at &quot;&lt;a class=&quot;__cf_email__&quot; href=&quot;/cdn-cgi/l/email-protection&quot; data-cfemail=&quot;85f5f7e2c5edf0f6edabe6eae8&quot;&gt;[email&amp;#160;protected]&lt;/a&gt;&lt;script cf-hash='f9e31' type=&quot;text/javascript&quot;&gt;\n/* &lt;![CDATA[ */!function(){try{var t=&quot;currentScript&quot;in document?document.currentScript:function(){for(var t=document.getElementsByTagName(&quot;script&quot;),e=t.length;e--;)if(t[e].getAttribute(&quot;cf-hash&quot;))return t[e]}();if(t&amp;&amp;t.previousSibling){var e,r,n,i,c=t.previousSibling,a=c.getAttribute(&quot;data-cfemail&quot;);if(a){for(e=&quot;&quot;,r=parseInt(a.substr(0,2),16),n=2;a.length-n;n+=2)i=parseInt(a.substr(n,2),16)^r,e+=String.fromCharCode(i);e=document.createTextNode(e),c.parentNode.replaceChild(e,c)}}}catch(u){}}();/* ]]&gt; */&lt;/script&gt;&quot;.\n\nFace book Fan Page:   &lt;a href=&quot;\nhttp://www.fb.me/p2pdl&quot; rel=&quot;nofollow&quot; target=&quot;_NEW&quot;&gt;\nhttp://www.fb.me/p2pdl&lt;/a&gt;","torrent":{"xt":"urn:btih:3cbf7a25424fd2d2f43533a4695da2b2368f5e32","amp;dn":"There+Will+Be+Blood+2007+BRRip+720p+x264+AAC+-+PRiSTiNE+%5BP2PDL%5D","amp;tr":["udp%3A%2F%2Ftracker.openbittorrent.com%3A80","udp%3A%2F%2Fopen.demonii.com%3A1337","udp%3A%2F%2Ftracker.coppersurfer.tk%3A6969","udp%3A%2F%2Fexodus.desync.com%3A6969"],"infoHash":"3cbf7a25424fd2d2f43533a4695da2b2368f5e32","infoHashBuffer":{"type":"Buffer","data":[60,191,122,37,66,79,210,210,244,53,51,164,105,93,162,178,54,143,94,50]},"announce":[],"urlList":[]}}